<svg width="476" height="97" viewBox="0 0 476 97" fill="none" xmlns="http://www.w3.org/2000/svg">
<mask id="mask0_5037_7222" style="mask-type:luminance" maskUnits="userSpaceOnUse" x="0" y="0" width="97" height="97">
<path d="M0 0.114258H96.4271V96.5413H0V0.114258Z" fill="white"/>
</mask>
<g mask="url(#mask0_5037_7222)">
<mask id="mask1_5037_7222" style="mask-type:luminance" maskUnits="userSpaceOnUse" x="0" y="0" width="97" height="97">
<path d="M48.2135 0.114258C21.5833 0.114258 0 21.6976 0 48.3278C0 74.9528 21.5833 96.5413 48.2135 96.5413C74.8385 96.5413 96.4271 74.9528 96.4271 48.3278C96.4271 21.6976 74.8385 0.114258 48.2135 0.114258Z" fill="white"/>
</mask>
<g mask="url(#mask1_5037_7222)">
<path d="M0 0.114258V96.5413H96.4271V0.114258H0Z" fill="url(#paint0_linear_5037_7222)"/>
</g>
</g>
<mask id="mask2_5037_7222" style="mask-type:luminance" maskUnits="userSpaceOnUse" x="1" y="3" width="117" height="82">
<path d="M1.0625 3.65039H117.115V84.5671H1.0625V3.65039Z" fill="white"/>
</mask>
<g mask="url(#mask2_5037_7222)">
<path d="M35.2966 84.4522C32.3695 84.4522 31.932 82.5251 30.1038 61.5251C29.6611 56.4522 29.0778 49.749 28.4632 45.0303C28.3851 45.4417 28.3174 45.8324 28.2549 46.1813C27.2601 51.6969 26.4788 56.0511 23.1455 56.0511H1.12988V51.6084H22.4372C22.9736 50.4209 23.5309 47.3272 23.8799 45.3949C24.8799 39.8115 25.6091 35.7803 28.8434 35.7803C31.9684 35.7803 32.5518 38.3896 34.5309 61.1397C34.7809 64.0042 35.0674 67.2699 35.3643 70.3115C36.1715 64.0199 37.0622 55.9522 37.8486 48.8167C42.6716 5.17611 43.5101 3.65527 46.6872 3.65527C49.9424 3.65527 50.7132 6.18652 54.0726 40.9521C54.6716 47.1292 55.3382 54.0251 55.9945 59.7699C56.2184 54.8584 56.9059 51.6084 59.9736 51.6084H72.7861C73.3747 50.7126 74.1455 48.0511 74.6195 46.4001C75.9893 41.6553 77.2809 37.1761 80.8591 37.1761C84.6507 37.1761 85.3799 41.9521 86.0882 46.5719C86.3278 48.1344 86.708 50.624 87.1455 51.6084H116.588V56.0511H86.5518C83.0466 56.0511 82.3903 51.7751 81.6976 47.2438C81.4684 45.7803 81.1351 43.5615 80.7184 42.2907C80.0518 43.6084 79.3278 46.124 78.8903 47.6344C77.5882 52.1501 76.458 56.0511 73.2653 56.0511H60.8591C60.4476 57.6188 60.3747 61.5094 60.3278 63.9574C60.1976 70.7178 60.1038 75.6084 56.4424 75.6084C53.3538 75.6084 52.7757 73.7022 49.6507 41.3792C48.7705 32.3271 47.6768 20.999 46.6403 13.9209C45.2341 22.4626 43.5778 37.4521 42.2705 49.3063C38.3851 84.4522 38.0934 84.4522 35.2966 84.4522Z" fill="#17999B"/>
</g>
<path d="M118.772 85.1152H108.918V21.3652H118.772V48.6777H148.439V21.3652H158.293V85.1152H148.439V57.5319H118.772V85.1152Z" fill="#17999B"/>
<path d="M191.309 86.0313C186.736 86.0313 182.71 84.9896 179.226 82.9063C175.736 80.8125 173.018 77.9583 171.059 74.3438C169.111 70.7188 168.143 66.625 168.143 62.0521C168.143 58.9271 168.627 55.9219 169.601 53.0313C170.585 50.1302 172.038 47.526 173.955 45.2188C175.882 42.901 178.268 41.0625 181.101 39.6979C183.945 38.3385 187.257 37.6562 191.038 37.6562C194.997 37.6562 198.731 38.5208 202.247 40.2396C205.757 41.9635 208.601 44.5677 210.768 48.0521C212.945 51.5417 214.038 55.9271 214.038 61.2188V63.7188H177.518C177.684 65.5677 178.127 67.2396 178.851 68.7396C179.96 71.5729 181.627 73.8333 183.851 75.5104C186.085 77.1771 188.627 78.0104 191.476 78.0104C194.585 78.0104 197.169 77.2083 199.226 75.5938C201.294 73.9688 202.773 72.0469 203.663 69.8229H213.268C212.32 72.7813 210.882 75.4896 208.955 77.9479C207.038 80.3958 204.611 82.3542 201.684 83.8229C198.768 85.2917 195.309 86.0313 191.309 86.0313ZM178.101 56.2813H204.497C204.439 55.6146 204.299 54.8958 204.08 54.1146C203.856 53.3385 203.523 52.5885 203.08 51.8646C201.965 49.6875 200.351 48.0417 198.226 46.9271C196.111 45.8177 193.835 45.2604 191.393 45.2604C185.976 45.2604 182.07 47.4635 179.684 51.8646C179.236 52.5885 178.893 53.3542 178.643 54.1563C178.393 54.9635 178.21 55.6719 178.101 56.2813Z" fill="#17999B"/>
<path d="M236.408 86.0313C231.908 86.0313 228.246 84.8385 225.428 82.4479C222.605 80.0469 221.199 76.7292 221.199 72.4896C221.199 70.2708 221.642 68.3229 222.533 66.6563C223.434 64.9792 224.663 63.5521 226.22 62.3854C227.605 61.3854 229.204 60.5521 231.012 59.8854C232.829 59.2188 234.829 58.6875 237.012 58.2813L252.22 55.3646C252.163 52.1302 251.293 49.651 249.616 47.9271C247.783 46.0938 245.329 45.1771 242.262 45.1771C239.762 45.1771 237.574 45.875 235.699 47.2604C233.835 48.651 232.658 50.5729 232.158 53.0313H223.053C223.605 49.5729 224.829 46.7188 226.72 44.4688C228.621 42.2083 230.949 40.5052 233.699 39.3646C236.46 38.2292 239.345 37.6562 242.345 37.6562C245.022 37.6562 247.574 38.0469 249.991 38.8229C252.418 39.6042 254.496 40.7969 256.22 42.4063C257.939 43.9792 259.147 45.776 259.845 47.8021C260.553 49.8333 260.975 51.8542 261.116 53.8646C261.251 55.8646 261.324 57.6771 261.324 59.3021V85.1146H252.137V78.2604C251.454 79.375 250.71 80.3542 249.908 81.1979C249.1 82.0313 248.225 82.7552 247.283 83.3646C245.783 84.3125 244.121 84.9896 242.303 85.4063C240.496 85.8229 238.533 86.0313 236.408 86.0313ZM238.262 78.4271C240.704 78.4271 242.934 77.9271 244.949 76.9271C247.835 75.4844 249.783 73.5677 250.783 71.1771C251.793 68.776 252.303 65.8438 252.303 62.3854L239.178 64.9688C235.939 65.6354 233.6 66.6458 232.158 67.9896C230.991 69.1563 230.408 70.5729 230.408 72.2396C230.408 74.1979 231.126 75.7188 232.574 76.8021C234.017 77.8854 235.913 78.4271 238.262 78.4271Z" fill="#17999B"/>
<path d="M288.223 85.1152H282.702C279.244 85.1152 276.556 84.3236 274.64 82.7402C272.723 81.1465 271.765 78.2923 271.765 74.1777V21.3652H280.952V71.9069C280.952 73.7559 281.244 75.1257 281.827 76.0111C282.41 76.9017 283.681 77.3444 285.64 77.3444H288.223V85.1152Z" fill="#17999B"/>
<path d="M324.92 86.1146C319.613 86.1146 315.024 85.2083 311.149 83.4063C307.285 81.5885 304.097 79.151 301.587 76.0938C299.087 73.026 297.232 69.5208 296.024 65.5729C294.826 61.6146 294.232 57.5208 294.232 53.2813C294.232 48.9896 294.842 44.8802 296.066 40.9479C297.3 37.0208 299.154 33.5104 301.628 30.4271C304.113 27.3333 307.285 24.8802 311.149 23.0729C315.024 21.2552 319.587 20.3438 324.837 20.3438C332.514 20.3438 338.696 22.1719 343.378 25.8229C348.055 29.4792 351.175 34.2292 352.732 40.0729H341.795C340.571 36.6719 338.524 34.0104 335.649 32.0938C332.774 30.1771 329.133 29.2188 324.732 29.2188C320.118 29.2188 316.295 30.3229 313.253 32.5313C310.212 34.7292 307.967 37.6354 306.524 41.2604C305.076 44.875 304.357 48.8229 304.357 53.1146C304.357 57.5729 305.133 61.6458 306.691 65.3229C308.243 68.9896 310.587 71.9167 313.712 74.0938C316.837 76.2604 320.712 77.3438 325.337 77.3438C330.962 77.3438 335.441 75.7917 338.774 72.6771C342.118 69.5521 343.821 65.151 343.878 59.4688H329.17V51.1146H353.566V85.1146H344.628V76.9271C342.404 80.2188 339.482 82.5729 335.857 83.9896C332.232 85.4063 328.587 86.1146 324.92 86.1146Z" fill="#FF8C42"/>
<path d="M379.974 86.0316C373.166 86.0316 368.458 83.5003 365.849 78.4274C365.125 76.9847 364.609 75.3024 364.307 73.3857C364 71.4587 363.849 68.9847 363.849 65.9691V38.5732H373.036V66.0524C373.036 70.792 373.838 74.0837 375.453 75.9274C376.911 77.4847 379.083 78.2607 381.974 78.2607C385.317 78.2607 387.911 77.2087 389.744 75.0941C391.021 73.7503 391.922 71.9378 392.453 69.6566C392.994 67.3805 393.265 64.292 393.265 60.3857V38.5732H402.453V85.1149H393.265V78.5107C391.25 81.1357 389.208 83.0472 387.14 84.2399C385.083 85.4326 382.692 86.0316 379.974 86.0316Z" fill="#FF8C42"/>
<path d="M418.061 32.0521C416.395 32.0521 414.947 31.5 413.728 30.3854C412.504 29.276 411.895 27.8802 411.895 26.1979C411.895 24.5313 412.504 23.1458 413.728 22.0313C414.947 20.9063 416.395 20.3438 418.061 20.3438C419.796 20.3438 421.259 20.9063 422.457 22.0313C423.65 23.1458 424.249 24.5313 424.249 26.1979C424.249 27.8802 423.65 29.276 422.457 30.3854C421.259 31.5 419.796 32.0521 418.061 32.0521ZM422.665 85.1146H413.478V38.5729H422.665V85.1146Z" fill="#FF8C42"/>
<path d="M452.573 86.0319C448.448 86.0319 444.833 85.0059 441.74 82.9486C438.656 80.8809 436.266 78.0423 434.573 74.4277C432.875 70.8027 432.031 66.6257 432.031 61.8861C432.031 57.0944 432.875 52.8965 434.573 49.2819C436.266 45.6569 438.656 42.8184 441.74 40.7611C444.833 38.6934 448.448 37.6569 452.573 37.6569C455.531 37.6569 458.104 38.1725 460.302 39.1986C462.51 40.2298 464.667 42.1934 466.781 45.0944V21.3652H475.969V85.1152H466.781V78.5111C464.724 81.36 462.578 83.3236 460.344 84.4069C458.12 85.4902 455.531 86.0319 452.573 86.0319ZM454.24 78.0111C456.865 78.0111 459.177 77.334 461.177 75.9694C463.188 74.61 464.766 72.709 465.906 70.2611C467.042 67.8027 467.615 65.0111 467.615 61.8861C467.615 58.709 467.042 55.8965 465.906 53.4486C464.766 50.9902 463.188 49.084 461.177 47.7194C459.177 46.36 456.865 45.6777 454.24 45.6777C451.573 45.6777 449.26 46.3757 447.302 47.7611C445.354 49.1517 443.854 51.0736 442.802 53.5319C441.745 55.9798 441.219 58.7611 441.219 61.8861C441.219 64.959 441.745 67.7194 442.802 70.1777C443.854 72.6257 445.354 74.5423 447.302 75.9277C449.26 77.3184 451.573 78.0111 454.24 78.0111Z" fill="#FF8C42"/>
<defs>
<linearGradient id="paint0_linear_5037_7222" x1="0" y1="48.3271" x2="96.426" y2="48.3271" gradientUnits="userSpaceOnUse">
<stop stop-color="#FF8C42"/>
<stop offset="0.015625" stop-color="#FF8C42"/>
<stop offset="0.03125" stop-color="#FF8D43"/>
<stop offset="0.046875" stop-color="#FF8E44"/>
<stop offset="0.0625" stop-color="#FF8E45"/>
<stop offset="0.078125" stop-color="#FF8F45"/>
<stop offset="0.09375" stop-color="#FF9046"/>
<stop offset="0.109375" stop-color="#FF9047"/>
<stop offset="0.125" stop-color="#FF9148"/>
<stop offset="0.140625" stop-color="#FF9248"/>
<stop offset="0.15625" stop-color="#FF9349"/>
<stop offset="0.171875" stop-color="#FF934A"/>
<stop offset="0.1875" stop-color="#FF944A"/>
<stop offset="0.203125" stop-color="#FF954B"/>
<stop offset="0.21875" stop-color="#FF954C"/>
<stop offset="0.234375" stop-color="#FF964D"/>
<stop offset="0.25" stop-color="#FF974D"/>
<stop offset="0.265625" stop-color="#FF974E"/>
<stop offset="0.28125" stop-color="#FF984F"/>
<stop offset="0.296875" stop-color="#FF9950"/>
<stop offset="0.3125" stop-color="#FF9950"/>
<stop offset="0.328125" stop-color="#FF9A51"/>
<stop offset="0.34375" stop-color="#FF9B52"/>
<stop offset="0.359375" stop-color="#FF9B53"/>
<stop offset="0.375" stop-color="#FF9C53"/>
<stop offset="0.390625" stop-color="#FF9D54"/>
<stop offset="0.40625" stop-color="#FF9E55"/>
<stop offset="0.421875" stop-color="#FF9E55"/>
<stop offset="0.4375" stop-color="#FF9F56"/>
<stop offset="0.453125" stop-color="#FFA057"/>
<stop offset="0.46875" stop-color="#FFA058"/>
<stop offset="0.484375" stop-color="#FFA158"/>
<stop offset="0.5" stop-color="#FFA259"/>
<stop offset="0.515625" stop-color="#FFA25A"/>
<stop offset="0.53125" stop-color="#FFA35B"/>
<stop offset="0.546875" stop-color="#FFA45B"/>
<stop offset="0.5625" stop-color="#FFA45C"/>
<stop offset="0.578125" stop-color="#FFA55D"/>
<stop offset="0.59375" stop-color="#FFA65E"/>
<stop offset="0.609375" stop-color="#FFA75E"/>
<stop offset="0.625" stop-color="#FFA75F"/>
<stop offset="0.640625" stop-color="#FFA860"/>
<stop offset="0.65625" stop-color="#FFA960"/>
<stop offset="0.671875" stop-color="#FFA961"/>
<stop offset="0.6875" stop-color="#FFAA62"/>
<stop offset="0.703125" stop-color="#FFAB63"/>
<stop offset="0.71875" stop-color="#FFAB63"/>
<stop offset="0.734375" stop-color="#FFAC64"/>
<stop offset="0.75" stop-color="#FFAD65"/>
<stop offset="0.765625" stop-color="#FFAD66"/>
<stop offset="0.78125" stop-color="#FFAE66"/>
<stop offset="0.796875" stop-color="#FFAF67"/>
<stop offset="0.8125" stop-color="#FFAF68"/>
<stop offset="0.828125" stop-color="#FFB069"/>
<stop offset="0.84375" stop-color="#FFB169"/>
<stop offset="0.859375" stop-color="#FFB26A"/>
<stop offset="0.875" stop-color="#FFB26B"/>
<stop offset="0.890625" stop-color="#FFB36B"/>
<stop offset="0.90625" stop-color="#FFB46C"/>
<stop offset="0.921875" stop-color="#FFB46D"/>
<stop offset="0.9375" stop-color="#FFB56E"/>
<stop offset="0.953125" stop-color="#FFB66E"/>
<stop offset="0.96875" stop-color="#FFB66F"/>
<stop offset="0.984375" stop-color="#FFB770"/>
<stop offset="1" stop-color="#FFB871"/>
</linearGradient>
</defs>
</svg>
